<svg xmlns="http://www.w3.org/2000/svg" xmlns:xlink="http://www.w3.org/1999/xlink" width="2458" zoomAndPan="magnify" viewBox="0 0 1843.5 383.999986" height="512" preserveAspectRatio="xMidYMid meet" version="1.0"><defs><g/><clipPath id="d420f66a40"><path d="M 0 0.0507812 L 1843 0.0507812 L 1843 383.945312 L 0 383.945312 Z M 0 0.0507812 " clip-rule="nonzero"/></clipPath><clipPath id="392fcdbe6b"><path d="M 253 108 L 396 108 L 396 383.945312 L 253 383.945312 Z M 253 108 " clip-rule="nonzero"/></clipPath><clipPath id="84c98795c5"><path d="M 351.796875 125.125 L 351.796875 288.542969 L 253.742188 331.921875 L 253.742188 384.09375 L 395.175781 321.238281 L 395.175781 108.148438 Z M 351.796875 125.125 " clip-rule="nonzero"/></clipPath><clipPath id="466e2199ac"><path d="M 273 6 L 417.503906 6 L 417.503906 282 L 273 282 Z M 273 6 " clip-rule="nonzero"/></clipPath><clipPath id="3a8f33ae78"><path d="M 317.875 99.355469 L 317.875 264.027344 L 273.246094 281.617188 L 273.246094 69.804688 L 417.183594 6.949219 L 417.183594 57.230469 Z M 317.875 99.355469 " clip-rule="nonzero"/></clipPath></defs><g clip-path="url(#d420f66a40)"><path fill="#ffffff" d="M 0 0.0507812 L 1843 0.0507812 L 1843 383.949219 L 0 383.949219 Z M 0 0.0507812 " fill-opacity="1" fill-rule="nonzero"/><rect x="-184.35" width="2212.2" fill="#f1552d" y="-38.399999" height="460.799983" fill-opacity="1"/></g><g clip-path="url(#392fcdbe6b)"><g clip-path="url(#84c98795c5)"><rect x="-184.35" width="2212.2" fill="#00051a" y="-38.399999" height="460.799983" fill-opacity="1"/></g></g><g clip-path="url(#466e2199ac)"><g clip-path="url(#3a8f33ae78)"><rect x="-184.35" width="2212.2" fill="#00051a" y="-38.399999" height="460.799983" fill-opacity="1"/></g></g><g fill="#ffffff" fill-opacity="1"><g transform="translate(438.854922, 348.905347)"><g><path d="M 175.671875 0 L 175.671875 -60.734375 L 88.359375 -60.734375 L 88.359375 -230.203125 L 18.640625 -230.203125 L 18.640625 0 Z M 175.671875 0 "/></g></g></g><g fill="#ffffff" fill-opacity="1"><g transform="translate(623.838692, 348.905347)"><g><path d="M 191.890625 0 L 191.890625 -166.703125 L 129.765625 -166.703125 L 129.765625 -63.84375 C 124.59375 -57.984375 117.34375 -50.734375 103.53125 -50.734375 C 88.359375 -50.734375 79.375 -57.296875 79.375 -74.203125 L 79.375 -166.703125 L 17.25 -166.703125 L 17.25 -47.625 C 17.25 -18.984375 33.828125 4.140625 72.46875 4.140625 C 101.8125 4.140625 120.109375 -7.9375 129.765625 -18.640625 L 129.765625 0 Z M 191.890625 0 "/></g></g></g><g fill="#ffffff" fill-opacity="1"><g transform="translate(832.980792, 348.905347)"><g><path d="M 292.328125 0 L 292.328125 -120.796875 C 292.328125 -155.3125 271.609375 -170.84375 240.890625 -170.84375 C 213.984375 -170.84375 192.234375 -156 182.578125 -141.5 C 174.984375 -162.203125 158.0625 -170.84375 134.59375 -170.84375 C 107.671875 -170.84375 86.625 -157.03125 79.375 -147.71875 L 79.375 -166.703125 L 17.25 -166.703125 L 17.25 0 L 79.375 0 L 79.375 -102.84375 C 83.515625 -107.671875 91.109375 -115.96875 104.578125 -115.96875 C 118.71875 -115.96875 123.5625 -107.328125 123.5625 -97.328125 L 123.5625 0 L 185.671875 0 L 185.671875 -102.84375 C 189.8125 -107.671875 197.40625 -115.96875 211.21875 -115.96875 C 225.015625 -115.96875 230.203125 -107.328125 230.203125 -97.328125 L 230.203125 0 Z M 292.328125 0 "/></g></g></g><g fill="#ffffff" fill-opacity="1"><g transform="translate(1142.552492, 348.905347)"><g><path d="M 48.3125 -183.953125 C 67.640625 -183.953125 83.171875 -199.484375 83.171875 -218.8125 C 83.171875 -238.140625 67.640625 -253.671875 48.3125 -253.671875 C 28.984375 -253.671875 13.453125 -238.140625 13.453125 -218.8125 C 13.453125 -199.484375 28.984375 -183.953125 48.3125 -183.953125 Z M 79.375 0 L 79.375 -166.703125 L 17.25 -166.703125 L 17.25 0 Z M 79.375 0 "/></g></g></g><g fill="#ffffff" fill-opacity="1"><g transform="translate(1286.803048, 191.282482)"><g><path d="M 2.203125 -4.515625 C 4.65625 -1.53125 8.65625 0.578125 13.9375 0.578125 C 22.59375 0.578125 25.328125 -4.375 25.328125 -8.5 C 25.328125 -15 19.65625 -16.625 14.46875 -18.125 C 10.09375 -19.265625 6.109375 -20.375 6.109375 -24.171875 C 6.109375 -27.640625 9.328125 -30.09375 13.609375 -30.09375 C 17.203125 -30.09375 20.46875 -28.84375 22.78125 -26.046875 L 24.609375 -28.0625 C 22.109375 -30.90625 18.546875 -32.59375 13.75 -32.59375 C 7.9375 -32.59375 3.21875 -29.265625 3.21875 -24.03125 C 3.21875 -18.125 8.609375 -16.671875 13.65625 -15.28125 C 18.171875 -14.078125 22.4375 -12.828125 22.4375 -8.3125 C 22.4375 -5.578125 20.578125 -1.921875 13.984375 -1.921875 C 9.421875 -1.921875 6.0625 -4.1875 3.984375 -6.578125 Z M 2.203125 -4.515625 "/></g></g></g><g fill="#ffffff" fill-opacity="1"><g transform="translate(1318.238085, 191.282482)"><g><path d="M 24.3125 0 L 24.3125 -2.5 L 6.734375 -2.5 L 6.734375 -15.1875 L 23.984375 -15.1875 L 23.984375 -17.6875 L 6.734375 -17.6875 L 6.734375 -29.5625 L 24.3125 -29.5625 L 24.3125 -32.0625 L 3.984375 -32.0625 L 3.984375 0 Z M 24.3125 0 "/></g></g></g><g fill="#ffffff" fill-opacity="1"><g transform="translate(1348.85603, 191.282482)"><g><path d="M 3.984375 -12.296875 C 3.984375 -4.421875 8.265625 0.578125 16.484375 0.578125 C 24.75 0.578125 28.984375 -4.375 28.984375 -12.296875 L 28.984375 -32.0625 L 26.1875 -32.0625 L 26.1875 -12.359375 C 26.1875 -5.859375 22.828125 -1.921875 16.484375 -1.921875 C 10.1875 -1.921875 6.78125 -5.859375 6.78125 -12.359375 L 6.78125 -32.0625 L 3.984375 -32.0625 Z M 3.984375 -12.296875 "/></g></g></g><g fill="#ffffff" fill-opacity="1"><g transform="translate(1385.337782, 191.282482)"><g/></g></g><g fill="#ffffff" fill-opacity="1"><g transform="translate(1401.296205, 191.282482)"><g><path d="M 30.375 0 L 17.25 -32.0625 L 13.84375 -32.0625 L 0.71875 0 L 3.796875 0 L 7.015625 -7.875 L 24.078125 -7.875 L 27.296875 0 Z M 23.21875 -10.375 L 7.875 -10.375 L 15.53125 -29.359375 Z M 23.21875 -10.375 "/></g></g></g><g fill="#ffffff" fill-opacity="1"><g transform="translate(1435.903466, 191.282482)"><g><path d="M 2.78125 -16 C 2.78125 -6.109375 10.046875 0.625 19.03125 0.625 C 24.078125 0.625 28.359375 -1.53125 31.1875 -4.703125 L 31.1875 -15.90625 L 16.34375 -15.90625 L 16.34375 -13.453125 L 28.453125 -13.453125 L 28.453125 -5.765625 C 26.671875 -3.984375 23.3125 -1.875 19.03125 -1.875 C 11.484375 -1.875 5.671875 -7.734375 5.671875 -16 C 5.671875 -24.375 11.484375 -30.09375 19.03125 -30.09375 C 23.125 -30.09375 26.765625 -28.3125 29.03125 -25.625 L 31.09375 -27.109375 C 28.171875 -30.46875 24.3125 -32.59375 19.03125 -32.59375 C 10.046875 -32.59375 2.78125 -25.90625 2.78125 -16 Z M 2.78125 -16 "/></g></g></g><g fill="#ffffff" fill-opacity="1"><g transform="translate(1473.586826, 191.282482)"><g><path d="M 24.3125 0 L 24.3125 -2.5 L 6.734375 -2.5 L 6.734375 -15.1875 L 23.984375 -15.1875 L 23.984375 -17.6875 L 6.734375 -17.6875 L 6.734375 -29.5625 L 24.3125 -29.5625 L 24.3125 -32.0625 L 3.984375 -32.0625 L 3.984375 0 Z M 24.3125 0 "/></g></g></g><g fill="#ffffff" fill-opacity="1"><g transform="translate(1504.204774, 191.282482)"><g><path d="M 29.609375 0 L 29.609375 -32.0625 L 26.859375 -32.0625 L 26.859375 -4.765625 L 6.78125 -32.0625 L 3.984375 -32.0625 L 3.984375 0 L 6.734375 0 L 6.734375 -27.6875 L 26.921875 0 Z M 29.609375 0 "/></g></g></g><g fill="#ffffff" fill-opacity="1"><g transform="translate(1541.311369, 191.282482)"><g><path d="M 14.953125 0 L 14.953125 -29.5625 L 25.421875 -29.5625 L 25.421875 -32.0625 L 1.6875 -32.0625 L 1.6875 -29.5625 L 12.15625 -29.5625 L 12.15625 0 Z M 14.953125 0 "/></g></g></g><g fill="#ffffff" fill-opacity="1"><g transform="translate(1571.929305, 191.282482)"><g><path d="M 24.3125 0 L 24.3125 -2.5 L 6.734375 -2.5 L 6.734375 -15.1875 L 23.984375 -15.1875 L 23.984375 -17.6875 L 6.734375 -17.6875 L 6.734375 -29.5625 L 24.3125 -29.5625 L 24.3125 -32.0625 L 3.984375 -32.0625 L 3.984375 0 Z M 24.3125 0 "/></g></g></g><g fill="#ffffff" fill-opacity="1"><g transform="translate(1286.803048, 248.017435)"><g><path d="M 30.375 0 L 17.25 -32.0625 L 13.84375 -32.0625 L 0.71875 0 L 3.796875 0 L 7.015625 -7.875 L 24.078125 -7.875 L 27.296875 0 Z M 23.21875 -10.375 L 7.875 -10.375 L 15.53125 -29.359375 Z M 23.21875 -10.375 "/></g></g></g><g fill="#ffffff" fill-opacity="1"><g transform="translate(1321.410305, 248.017435)"><g><path d="M 26.09375 0 L 16.828125 -13.453125 C 21.578125 -13.65625 25.71875 -16.875 25.71875 -22.6875 C 25.71875 -28.546875 21.484375 -32.0625 15.953125 -32.0625 L 3.984375 -32.0625 L 3.984375 0 L 6.734375 0 L 6.734375 -13.265625 L 13.796875 -13.265625 L 22.78125 0 Z M 22.828125 -22.6875 C 22.828125 -18.640625 19.953125 -15.765625 15.71875 -15.765625 L 6.734375 -15.765625 L 6.734375 -29.5625 L 15.71875 -29.5625 C 19.953125 -29.5625 22.828125 -26.71875 22.828125 -22.6875 Z M 22.828125 -22.6875 "/></g></g></g><g fill="#ffffff" fill-opacity="1"><g transform="translate(1353.470193, 248.017435)"><g><path d="M 14.953125 0 L 14.953125 -29.5625 L 25.421875 -29.5625 L 25.421875 -32.0625 L 1.6875 -32.0625 L 1.6875 -29.5625 L 12.15625 -29.5625 L 12.15625 0 Z M 14.953125 0 "/></g></g></g><g fill="#ffffff" fill-opacity="1"><g transform="translate(1384.088134, 248.017435)"><g><path d="M 6.734375 0 L 6.734375 -32.0625 L 3.984375 -32.0625 L 3.984375 0 Z M 6.734375 0 "/></g></g></g><g fill="#ffffff" fill-opacity="1"><g transform="translate(1398.316254, 248.017435)"><g><path d="M 6.734375 0 L 6.734375 -15.1875 L 23.984375 -15.1875 L 23.984375 -17.6875 L 6.734375 -17.6875 L 6.734375 -29.5625 L 24.3125 -29.5625 L 24.3125 -32.0625 L 3.984375 -32.0625 L 3.984375 0 Z M 6.734375 0 "/></g></g></g><g fill="#ffffff" fill-opacity="1"><g transform="translate(1427.876796, 248.017435)"><g><path d="M 6.734375 0 L 6.734375 -32.0625 L 3.984375 -32.0625 L 3.984375 0 Z M 6.734375 0 "/></g></g></g><g fill="#ffffff" fill-opacity="1"><g transform="translate(1442.104915, 248.017435)"><g><path d="M 18.9375 0.578125 C 24.125 0.578125 27.875 -1.640625 30.71875 -5.140625 L 28.40625 -6.578125 C 26.390625 -3.796875 22.875 -1.921875 18.9375 -1.921875 C 11.484375 -1.921875 5.671875 -7.734375 5.671875 -16 C 5.671875 -24.375 11.484375 -30.09375 18.9375 -30.09375 C 22.875 -30.09375 26.390625 -28.21875 28.40625 -25.421875 L 30.71875 -26.921875 C 27.96875 -30.328125 24.125 -32.59375 18.9375 -32.59375 C 9.953125 -32.59375 2.78125 -25.859375 2.78125 -16 C 2.78125 -6.15625 9.953125 0.578125 18.9375 0.578125 Z M 18.9375 0.578125 "/></g></g></g><g fill="#ffffff" fill-opacity="1"><g transform="translate(1477.913803, 248.017435)"><g><path d="M 30.375 0 L 17.25 -32.0625 L 13.84375 -32.0625 L 0.71875 0 L 3.796875 0 L 7.015625 -7.875 L 24.078125 -7.875 L 27.296875 0 Z M 23.21875 -10.375 L 7.875 -10.375 L 15.53125 -29.359375 Z M 23.21875 -10.375 "/></g></g></g><g fill="#ffffff" fill-opacity="1"><g transform="translate(1512.521064, 248.017435)"><g><path d="M 22.25 0 L 22.25 -2.5 L 6.734375 -2.5 L 6.734375 -32.0625 L 3.984375 -32.0625 L 3.984375 0 Z M 22.25 0 "/></g></g></g></svg>